<svg width="18" height="19" viewBox="0 0 18 19" fill="none" xmlns="http://www.w3.org/2000/svg">
  <path fill-rule="evenodd" clip-rule="evenodd" d="M10.9636 12.8239C8.31325 14.9466 4.43382 14.7795 1.97703 12.3227C-0.65901 9.68674 -0.65901 5.41287 1.97703 2.77683C4.61307 0.140795 8.88695 0.140795 11.523 2.77683C13.9797 5.23361 14.1468 9.11304 12.0241 11.7633L17.1798 16.9189C17.4727 17.2118 17.4727 17.6867 17.1798 17.9796C16.8869 18.2725 16.4121 18.2725 16.1192 17.9796L10.9636 12.8239ZM3.03769 11.2621C0.98744 9.21183 0.98744 5.88774 3.03769 3.83749C5.08795 1.78724 8.41205 1.78724 10.4623 3.83749C12.5111 5.88624 12.5126 9.20693 10.4669 11.2576C10.4654 11.2591 10.4639 11.2605 10.4622 11.2621C10.4607 11.2636 10.4593 11.2651 10.4579 11.2666C8.40715 13.3123 5.08644 13.3108 3.03769 11.2621Z" />
</svg>